<svg width="354" height="352" viewBox="0 0 354 352" fill="none" xmlns="http://www.w3.org/2000/svg">
<circle cx="176.486" cy="176" r="175.773" fill="white"/>
<path d="M241.346 254.297C235.541 254.297 228.077 264.456 228.077 270.883H217.296C213.772 270.883 210.662 274.2 210.662 278.139C210.662 282.286 213.564 285.188 217.296 285.188H263.944C290.897 285.396 298.153 261.139 295.872 244.138C295.872 244.138 272.859 268.602 266.639 268.602C266.847 243.309 248.188 219.466 235.955 208.478C229.114 202.258 227.248 185.88 227.248 185.88V177.172C227.248 168.257 226.626 158.72 224.76 157.476C221.443 155.196 215.638 167.013 210.869 167.013C186.612 167.013 190.137 183.599 184.953 183.599H173.965C169.404 183.599 169.404 187.331 169.404 189.819C169.819 196.661 173.343 202.258 190.137 202.258C194.283 202.258 200.71 208.064 200.71 218.637V272.749H200.503H198.43C196.149 272.749 194.283 274.615 194.283 276.895V281.042C194.283 283.323 196.149 285.188 198.43 285.188H231.083" stroke="black" stroke-width="5" stroke-linejoin="round"/>
<path d="M212.735 246.004V264.249" stroke="black" stroke-width="5" stroke-linejoin="round"/>
<path d="M171.477 196.246H183.917" stroke="black" stroke-width="5" stroke-linejoin="round"/>
<path d="M132.253 192.028C155.539 163.324 119.794 167.242 114.606 164.646C112.783 163.735 110.989 154.939 106.932 156.97C100.685 160.095 101.216 176.365 100.538 181.792C100.17 184.746 96.0453 188.976 94.6897 192.028C92.5258 196.898 90.1482 202.692 86.1732 208.742C82.1986 214.792 73.892 219.483 69.7341 224.106C52.0389 243.775 59.6256 266.898 79.0532 281.85C98.7028 296.973 180.772 291.329 157.576 256.516" stroke="black" stroke-opacity="0.9" stroke-width="5" stroke-linecap="round" stroke-linejoin="round"/>
<path d="M123.068 205.353C128.834 226.461 120.556 248.504 120.556 269.172C120.556 271.55 125.276 269.255 127.589 269.68" stroke="black" stroke-opacity="0.9" stroke-width="5" stroke-linecap="round" stroke-linejoin="round"/>
<path d="M92.9675 227.533C97.6095 228.216 101.846 231.624 105.132 234.809C121.487 250.667 100.593 261.324 99.4363 266.93C99.175 268.198 104.567 269.071 105.65 269.187" stroke="black" stroke-opacity="0.9" stroke-width="5" stroke-linecap="round" stroke-linejoin="round"/>
<path d="M116.229 158.092C119.382 155.134 119.984 160.311 120.556 163.158" stroke="black" stroke-opacity="0.9" stroke-width="5" stroke-linecap="round" stroke-linejoin="round"/>
<path d="M47.0641 170.602L46.4559 177.165L18.4157 164.481L19.1471 156.589L49.0392 149.287L48.4311 155.85L25.4113 161.035L25.3903 161.261L47.0641 170.602ZM35.6402 169.957L37.0766 154.456L41.8573 154.899L40.4208 170.4L35.6402 169.957Z" fill="black"/>
<path d="M52.0804 141.554C51.6269 143.147 50.8063 144.474 49.6185 145.535C48.4243 146.583 46.9181 147.257 45.1 147.557C43.2753 147.845 41.1926 147.656 38.8518 146.99C36.4472 146.306 34.5581 145.35 33.1844 144.123C31.8017 142.892 30.8968 141.522 30.4698 140.012C30.0362 138.491 30.0385 136.961 30.4764 135.421C30.8107 134.246 31.2897 133.324 31.9133 132.655C32.5304 131.974 33.2037 131.476 33.9331 131.162C34.6559 130.836 35.336 130.626 35.9733 130.532L36.0238 130.354L25.5038 127.361L27.1559 121.554L55.1363 129.516L53.5037 135.254L50.1427 134.297L50.0728 134.543C50.5779 134.982 51.0462 135.534 51.4775 136.198C51.9022 136.851 52.1886 137.626 52.3366 138.525C52.4871 139.415 52.4018 140.424 52.0804 141.554ZM47.9737 138.391C48.2406 137.453 48.211 136.588 47.885 135.796C47.5524 134.993 46.9708 134.286 46.1403 133.675C45.3123 133.056 44.2744 132.569 43.0266 132.214C41.7787 131.859 40.6456 131.723 39.6272 131.808C38.6088 131.892 37.7559 132.191 37.0683 132.704C36.3808 133.217 35.9035 133.943 35.6366 134.881C35.3645 135.838 35.3947 136.717 35.7273 137.521C36.0599 138.324 36.6382 139.026 37.4623 139.624C38.2863 140.223 39.304 140.695 40.5154 141.039C41.7359 141.387 42.8632 141.525 43.8972 141.455C44.9247 141.373 45.7946 141.084 46.5069 140.588C47.2126 140.08 47.7016 139.348 47.9737 138.391Z" fill="black"/>
<path d="M61.3497 117.431C60.3662 119.406 59.0961 120.905 57.5393 121.929C55.9782 122.939 54.2491 123.459 52.3519 123.487C50.4462 123.511 48.493 123.025 46.4925 122.029C44.475 121.025 42.9059 119.757 41.7854 118.226C40.6563 116.69 40.0289 114.997 39.903 113.147C39.7729 111.284 40.1996 109.364 41.1831 107.389C42.1666 105.414 43.4388 103.921 44.9999 102.911C46.5567 101.888 48.2879 101.364 50.1936 101.34C52.0908 101.311 54.0482 101.799 56.0657 102.804C58.0663 103.8 59.6311 105.066 60.7601 106.601C61.8807 108.132 62.506 109.829 62.6361 111.693C62.762 113.543 62.3332 115.456 61.3497 117.431ZM57.1663 115.316C57.6137 114.418 57.733 113.541 57.524 112.686C57.3066 111.826 56.8289 111.022 56.0907 110.274C55.3568 109.517 54.4219 108.856 53.286 108.29C52.1501 107.725 51.059 107.377 50.0128 107.248C48.9708 107.11 48.0413 107.213 47.2246 107.557C46.4078 107.902 45.7757 108.523 45.3282 109.422C44.8766 110.329 44.7553 111.22 44.9642 112.097C45.1774 112.964 45.6509 113.777 46.3848 114.534C47.123 115.282 48.06 115.939 49.1959 116.505C50.3318 117.07 51.4208 117.422 52.4628 117.56C53.509 117.69 54.4427 117.578 55.2637 117.225C56.0804 116.86 56.7146 116.223 57.1663 115.316Z" fill="black"/>
<path d="M74.5864 109.055L50.6459 90.9759L54.2411 86.215L57.1657 88.4235L57.3283 88.2082C57.0196 87.6427 56.7746 86.9772 56.5934 86.2114C56.4104 85.4324 56.4018 84.5952 56.5676 83.6999C56.7316 82.7914 57.1817 81.8497 57.9178 80.8748C58.8766 79.6053 60.0936 78.685 61.569 78.1141C63.0368 77.5375 64.6783 77.4302 66.4934 77.7923C68.3009 78.1486 70.2022 79.0801 72.1973 80.5867C74.1394 82.0533 75.5425 83.6053 76.4064 85.2426C77.2684 86.8667 77.6381 88.4749 77.5155 90.0673C77.3909 91.6465 76.8293 93.0973 75.8307 94.4198C75.123 95.3568 74.366 96.0371 73.5597 96.4606C72.7591 96.8765 71.9676 97.1154 71.1852 97.1772C70.3952 97.2333 69.6757 97.1883 69.0265 97.0422L68.9152 97.1896L78.233 104.226L74.5864 109.055ZM62.9211 92.8232C63.9564 93.605 64.9679 94.1434 65.9555 94.4383C66.9432 94.7333 67.8579 94.7713 68.6995 94.5525C69.5336 94.328 70.2445 93.8265 70.8323 93.0482C71.4258 92.2622 71.7126 91.4346 71.6928 90.5652C71.6654 89.6901 71.3718 88.8217 70.8122 87.96C70.2506 87.085 69.4636 86.2652 68.4509 85.5005C67.4459 84.7415 66.4561 84.2136 65.4817 83.9168C64.5073 83.6201 63.5993 83.5811 62.7576 83.7999C61.916 84.0187 61.1956 84.5249 60.5964 85.3183C60.0029 86.1043 59.7085 86.9262 59.7132 87.7842C59.7237 88.6346 60.0021 89.4916 60.5485 90.3551C61.0949 91.2187 61.8858 92.0414 62.9211 92.8232Z" fill="black"/>
<path d="M80.6641 57.6973L83.7264 61.0564L74.0164 69.9082L70.9541 66.5491L80.6641 57.6973ZM69.6369 60.6765L74.1088 56.5999L87.8124 71.632C88.1888 72.0449 88.5452 72.3094 88.8817 72.4255C89.2118 72.5346 89.5303 72.5325 89.8372 72.4194C90.1511 72.2998 90.4585 72.1029 90.7594 71.8285C90.9694 71.6372 91.1634 71.4283 91.3414 71.2019C91.5131 70.9685 91.6453 70.7903 91.7382 70.6672L95.475 73.3537C95.3149 73.6278 95.0733 73.9954 94.7504 74.4564C94.4338 74.9244 93.9946 75.4336 93.4329 75.9841C92.3935 77.0086 91.3179 77.7264 90.2063 78.1375C89.1017 78.5423 88.0096 78.6024 86.9301 78.3179C85.8507 78.0334 84.8328 77.3595 83.8764 76.2964L69.6369 60.6765Z" fill="black"/>
<path d="M107.972 65.3587C106.789 66.0915 105.607 66.5392 104.427 66.7019C103.242 66.8565 102.128 66.6943 101.085 66.2151C100.045 65.7229 99.1459 64.8649 98.3882 63.6411C97.7501 62.6105 97.4034 61.6278 97.3481 60.6931C97.2928 59.7583 97.4591 58.8757 97.8471 58.0452C98.235 57.2146 98.7763 56.434 99.471 55.7031C100.174 54.9673 100.957 54.2709 101.82 53.614C102.829 52.8333 103.633 52.1902 104.234 51.6848C104.829 51.1714 105.214 50.7218 105.387 50.3361C105.56 49.9503 105.525 49.5602 105.28 49.1657L105.235 49.0932C104.762 48.3284 104.154 47.8861 103.412 47.7666C102.677 47.642 101.871 47.8515 100.994 48.3948C100.068 48.9681 99.4584 49.6296 99.1651 50.3792C98.8669 51.1207 98.8187 51.8523 99.0204 52.5739L94.0228 55.1336C93.5664 53.8569 93.4382 52.5886 93.6383 51.3286C93.8333 50.0607 94.3533 48.8588 95.1983 47.723C96.0463 46.5743 97.211 45.5412 98.6924 44.624C99.723 43.9859 100.784 43.4959 101.876 43.1542C102.975 42.8075 104.048 42.6609 105.095 42.7145C106.15 42.7631 107.137 43.0539 108.058 43.5867C108.973 44.1115 109.772 44.9255 110.455 46.0285L118.202 58.5402L113.323 61.5612L111.73 58.9888L111.585 59.0786C111.646 59.8427 111.564 60.6007 111.339 61.3526C111.109 62.0965 110.721 62.81 110.175 63.4933C109.624 64.1686 108.89 64.7904 107.972 65.3587ZM107.247 60.8958C108.004 60.4272 108.58 59.8644 108.975 59.2076C109.366 58.5427 109.566 57.8505 109.577 57.1308C109.588 56.4111 109.392 55.7252 108.988 55.073L107.769 53.1045C107.673 53.3089 107.511 53.5426 107.284 53.8056C107.061 54.0556 106.798 54.324 106.497 54.6109C106.19 54.8896 105.881 55.1644 105.57 55.4351C105.254 55.6978 104.967 55.9365 104.71 56.1512C104.161 56.6137 103.721 57.0811 103.39 57.5535C103.059 58.0259 102.871 58.5044 102.825 58.9891C102.775 59.4656 102.9 59.9455 103.199 60.4286C103.633 61.129 104.218 61.5074 104.954 61.5637C105.694 61.607 106.458 61.3843 107.247 60.8958Z" fill="black"/>
<path d="M152.793 47.1101C151.424 47.3659 150.16 47.3564 149.001 47.0818C147.84 46.7979 146.86 46.2441 146.061 45.4206C145.269 44.5859 144.741 43.4612 144.476 42.0463C144.253 40.8548 144.285 39.8133 144.571 38.9217C144.857 38.03 145.331 37.2671 145.993 36.6328C146.655 35.9985 147.442 35.4661 148.353 35.0355C149.274 34.6032 150.256 34.2367 151.298 33.9359C152.521 33.5725 153.504 33.2635 154.246 33.0091C154.987 32.7454 155.508 32.465 155.809 32.168C156.109 31.8709 156.217 31.4943 156.132 31.0381L156.116 30.9544C155.951 30.0701 155.544 29.4381 154.895 29.0585C154.255 28.6771 153.428 28.5812 152.413 28.7709C151.343 28.971 150.536 29.3676 149.991 29.9606C149.445 30.5444 149.136 31.2091 149.064 31.9548L143.479 32.5364C143.514 31.181 143.853 29.952 144.495 28.8494C145.135 27.7375 146.054 26.8047 147.252 26.0508C148.458 25.286 149.917 24.7434 151.63 24.4233C152.821 24.2005 153.987 24.127 155.129 24.2027C156.279 24.2766 157.333 24.5276 158.29 24.9557C159.256 25.3821 160.072 26.0099 160.737 26.8392C161.401 27.6592 161.852 28.7068 162.091 29.9821L164.795 44.4474L159.154 45.5019L158.598 42.5279L158.43 42.5592C158.211 43.2938 157.861 43.971 157.379 44.5908C156.896 45.2014 156.277 45.7266 155.521 46.1666C154.763 46.5972 153.854 46.9117 152.793 47.1101ZM153.729 42.6866C154.604 42.5231 155.344 42.2064 155.95 41.7367C156.554 41.2577 156.991 40.6847 157.261 40.0176C157.532 39.3505 157.596 38.64 157.455 37.886L157.03 35.6101C156.866 35.7659 156.631 35.9254 156.325 36.0887C156.026 36.241 155.684 36.3964 155.299 36.555C154.913 36.7043 154.526 36.8489 154.137 36.9889C153.748 37.1196 153.394 37.2386 153.077 37.3461C152.398 37.579 151.819 37.8558 151.339 38.1767C150.86 38.4975 150.511 38.8758 150.294 39.3113C150.075 39.7376 150.018 40.23 150.122 40.7885C150.274 41.5984 150.683 42.1626 151.349 42.4811C152.023 42.7886 152.816 42.8571 153.729 42.6866Z" fill="black"/>
<path d="M214.318 26.1257L213.483 30.5938L200.567 28.1795L201.402 23.7114L214.318 26.1257ZM205.295 19.1213L211.243 20.2332L207.506 40.2277C207.403 40.7769 207.407 41.2208 207.517 41.5593C207.629 41.8885 207.822 42.1414 208.098 42.3181C208.382 42.4965 208.724 42.6232 209.125 42.698C209.404 42.7502 209.688 42.7791 209.976 42.7848C210.265 42.7811 210.487 42.7793 210.641 42.7792L210.749 47.3802C210.434 47.4176 209.995 47.4464 209.433 47.4665C208.869 47.4959 208.197 47.4523 207.42 47.3358C205.976 47.1237 204.755 46.698 203.757 46.0586C202.768 45.421 202.062 44.5858 201.638 43.5529C201.215 42.52 201.139 41.3016 201.411 39.8977L205.295 19.1213Z" fill="black"/>
<path d="M233.957 45.7322L238.483 34.0498L244.125 36.2357L236.244 56.5805L230.826 54.4819L232.258 50.7864L232.046 50.7043C231.125 51.7185 229.99 52.3807 228.641 52.6908C227.301 53.0044 225.867 52.8653 224.339 52.2735C222.979 51.7467 221.903 50.9741 221.109 49.9557C220.315 48.9374 219.848 47.7458 219.706 46.3809C219.574 45.0194 219.811 43.5423 220.418 41.9494L225.436 28.9955L231.078 31.1814L226.45 43.1287C225.994 44.333 225.948 45.4071 226.314 46.351C226.679 47.2949 227.396 47.9738 228.465 48.3877C229.145 48.6511 229.84 48.7429 230.552 48.6631C231.266 48.5744 231.925 48.2911 232.526 47.8132C233.136 47.3388 233.613 46.6451 233.957 45.7322Z" fill="black"/>
<path d="M268.81 79.6735C267.159 78.1679 266.057 76.5229 265.506 74.7385C264.967 72.9535 264.951 71.1444 265.456 69.3112C265.968 67.4843 266.967 65.7556 268.454 64.125C269.959 62.4735 271.598 61.3151 273.371 60.65C275.156 59.9843 276.96 59.8406 278.78 60.2189C280.607 60.5903 282.336 61.5192 283.967 63.0056C285.373 64.288 286.372 65.6662 286.963 67.1404C287.554 68.6146 287.737 70.0943 287.51 71.5795C287.284 73.0647 286.635 74.4588 285.562 75.7619L281.342 71.9149C281.957 71.0017 282.232 70.0673 282.168 69.1117C282.117 68.1555 281.682 67.3041 280.863 66.5577C280.17 65.9261 279.393 65.5632 278.53 65.469C277.681 65.3742 276.788 65.5529 275.85 66.0052C274.913 66.4574 273.981 67.1909 273.056 68.2057C272.119 69.2344 271.461 70.2368 271.084 71.2128C270.714 72.1952 270.615 73.1113 270.789 73.9613C270.962 74.8113 271.395 75.5521 272.088 76.1837C272.599 76.6494 273.153 76.9623 273.75 77.1224C274.354 77.2889 274.971 77.2939 275.601 77.1374C276.244 76.9803 276.866 76.6566 277.466 76.1663L281.686 80.0133C280.494 81.1812 279.169 81.9597 277.712 82.3488C276.269 82.7373 274.783 82.7154 273.255 82.2834C271.727 81.8513 270.245 80.9813 268.81 79.6735Z" fill="black"/>
<path d="M284.255 96.7879C282.925 95.0272 282.149 93.2219 281.927 91.3723C281.719 89.5245 282.024 87.745 282.844 86.034C283.672 84.3172 284.978 82.7855 286.761 81.4387C288.56 80.0805 290.394 79.2411 292.264 78.9205C294.142 78.5942 295.937 78.7872 297.65 79.4993C299.376 80.2134 300.903 81.4508 302.233 83.2115C303.563 84.9723 304.332 86.7766 304.541 88.6244C304.763 90.4741 304.46 92.2573 303.632 93.974C302.812 95.6851 301.503 97.2197 299.704 98.5779C297.921 99.9247 296.09 100.761 294.212 101.088C292.342 101.408 290.544 101.211 288.818 100.497C287.106 99.7852 285.585 98.5487 284.255 96.7879ZM288.013 93.9857C288.618 94.7868 289.349 95.2844 290.208 95.4785C291.074 95.667 292.007 95.5976 293.006 95.2704C294.01 94.9508 295.019 94.4087 296.032 93.644C297.044 92.8793 297.842 92.0575 298.424 91.1787C299.012 90.3074 299.334 89.4295 299.39 88.5448C299.446 87.6601 299.171 86.8173 298.566 86.0162C297.955 85.2076 297.211 84.7016 296.334 84.498C295.462 84.302 294.524 84.3638 293.519 84.6834C292.52 85.0106 291.514 85.5565 290.502 86.3212C289.489 87.086 288.689 87.9039 288.101 88.7752C287.518 89.654 287.202 90.5395 287.152 91.4318C287.115 92.3258 287.402 93.1772 288.013 93.9857Z" fill="black"/>
<path d="M291.687 105.723L311.218 95.998L313.788 101.16L310.342 102.876L310.456 103.105C311.803 102.942 313.044 103.171 314.178 103.791C315.312 104.411 316.208 105.383 316.867 106.705C317.533 108.044 317.766 109.351 317.565 110.626C317.373 111.896 316.786 112.97 315.807 113.85L315.908 114.053C317.225 113.894 318.478 114.17 319.667 114.879C320.869 115.592 321.826 116.665 322.54 118.098C323.447 119.92 323.603 121.689 323.007 123.403C322.424 125.121 321.073 126.508 318.954 127.564L305.819 134.104L303.128 128.7L315.195 122.691C316.28 122.151 316.95 121.458 317.206 120.611C317.461 119.764 317.374 118.909 316.943 118.044C316.453 117.061 315.758 116.45 314.856 116.211C313.963 115.968 313.008 116.1 311.991 116.607L300.064 122.546L297.449 117.294L309.63 111.229C310.588 110.752 311.214 110.096 311.507 109.262C311.805 108.437 311.732 107.579 311.289 106.689C310.989 106.087 310.567 105.621 310.021 105.29C309.488 104.963 308.88 104.794 308.199 104.785C307.525 104.771 306.828 104.944 306.108 105.302L294.384 111.14L291.687 105.723Z" fill="black"/>
<path d="M297.588 140.941L325.779 130.681L327.819 136.287L324.375 137.54L324.468 137.794C325.11 137.842 325.802 137.999 326.543 138.263C327.296 138.533 328.003 138.981 328.665 139.607C329.338 140.239 329.884 141.128 330.301 142.276C330.845 143.771 330.956 145.293 330.633 146.842C330.318 148.387 329.516 149.823 328.225 151.149C326.943 152.473 325.128 153.562 322.778 154.417C320.491 155.249 318.426 155.583 316.582 155.417C314.75 155.258 313.2 154.694 311.93 153.725C310.672 152.761 309.76 151.501 309.193 149.944C308.792 148.841 308.633 147.835 308.716 146.928C308.802 146.03 309.032 145.236 309.405 144.546C309.788 143.852 310.217 143.273 310.693 142.808L310.629 142.634L299.657 146.628L297.588 140.941ZM317.553 139.978C316.334 140.422 315.332 140.978 314.548 141.646C313.763 142.315 313.234 143.062 312.96 143.887C312.695 144.709 312.729 145.578 313.063 146.495C313.399 147.42 313.938 148.111 314.678 148.567C315.428 149.02 316.316 149.246 317.344 149.245C318.383 149.249 319.499 149.035 320.692 148.601C321.875 148.17 322.856 147.626 323.635 146.97C324.414 146.314 324.941 145.573 325.215 144.748C325.489 143.922 325.456 143.042 325.116 142.108C324.779 141.183 324.249 140.489 323.526 140.026C322.807 139.572 321.936 139.34 320.915 139.329C319.893 139.318 318.772 139.534 317.553 139.978Z" fill="black"/>
<path d="M310.087 166.733C309.958 165.347 310.084 164.09 310.465 162.961C310.855 161.831 311.496 160.906 312.39 160.186C313.294 159.475 314.463 159.053 315.896 158.92C317.103 158.808 318.137 158.936 318.999 159.303C319.86 159.67 320.576 160.212 321.147 160.93C321.717 161.647 322.175 162.48 322.519 163.427C322.865 164.384 323.139 165.396 323.343 166.461C323.592 167.712 323.809 168.719 323.993 169.482C324.188 170.244 324.419 170.788 324.687 171.115C324.955 171.442 325.32 171.584 325.782 171.542L325.867 171.534C326.763 171.451 327.43 171.104 327.867 170.492C328.306 169.891 328.478 169.076 328.383 168.048C328.282 166.964 327.962 166.123 327.422 165.527C326.891 164.929 326.257 164.56 325.521 164.419L325.458 158.804C326.804 158.965 327.997 159.415 329.035 160.156C330.083 160.896 330.927 161.897 331.567 163.16C332.218 164.431 332.623 165.934 332.784 167.669C332.896 168.876 332.862 170.044 332.681 171.173C332.501 172.312 332.154 173.338 331.639 174.251C331.126 175.174 330.425 175.928 329.538 176.515C328.66 177.1 327.576 177.452 326.284 177.572L311.631 178.93L311.101 173.216L314.114 172.937L314.098 172.767C313.387 172.481 312.745 172.07 312.172 171.533C311.609 170.996 311.143 170.33 310.775 169.537C310.416 168.743 310.186 167.808 310.087 166.733ZM314.405 168.074C314.487 168.96 314.734 169.727 315.146 170.373C315.567 171.019 316.097 171.507 316.737 171.838C317.376 172.168 318.078 172.298 318.841 172.228L321.147 172.014C321.007 171.837 320.87 171.588 320.735 171.267C320.611 170.956 320.488 170.601 320.366 170.203C320.253 169.805 320.144 169.406 320.041 169.007C319.947 168.606 319.861 168.243 319.783 167.918C319.614 167.22 319.391 166.618 319.116 166.111C318.841 165.604 318.496 165.222 318.083 164.965C317.679 164.708 317.194 164.606 316.628 164.658C315.807 164.734 315.208 165.089 314.829 165.723C314.461 166.366 314.319 167.15 314.405 168.074Z" fill="black"/>
</svg>
