<svg width="274" height="305" viewBox="0 0 274 305" fill="none" xmlns="http://www.w3.org/2000/svg">
<mask id="mask0_3405_461" style="mask-type:luminance" maskUnits="userSpaceOnUse" x="6" y="47" width="259" height="185">
<path d="M6.69214 47.4832H264.124V231.113H6.69214V47.4832Z" fill="white"/>
</mask>
<g mask="url(#mask0_3405_461)">
<path fill-rule="evenodd" clip-rule="evenodd" d="M139.187 131.405C137.885 131.322 132.348 131.082 131.291 130.426C132.515 128.067 136.661 123.593 140.812 125.462C140.895 127.009 139.677 130.02 139.187 131.405ZM136.661 50.1811C136.828 48.879 137.234 48.4728 137.557 47.4988C133.083 47.7436 124.781 52.0561 121.932 53.9259C119.656 55.3895 117.374 57.103 115.583 58.728C112.572 61.4155 112.249 62.5561 109.723 63.5301C105.249 65.2384 101.182 70.4468 99.2286 74.9259C96.4578 81.2697 95.7286 87.6186 95.7286 94.9468C95.7286 107.317 100.854 123.676 113.958 114.072C120.791 109.108 127.468 99.1759 131.536 89.4103C131.453 97.0613 125.515 109.593 122.015 113.582C118.109 117.978 111.354 123.186 104.515 120.988C102.645 120.421 101.833 119.686 100.609 118.462L99.3067 117.488C99.3067 127.988 97.4369 134.988 93.6921 142.962C91.9005 146.624 90.1088 149.634 87.9161 152.889C79.4473 165.749 68.2182 176.494 61.3015 187.723C51.614 203.27 64.8796 195.046 41.8484 202.535C30.9421 206.035 11.739 214.582 6.69214 223.124C7.74943 222.556 8.89006 221.66 10.1088 220.926C14.0151 218.567 17.1088 217.264 21.5046 215.718C34.2807 211.244 45.3484 210.348 58.5359 208.478C65.5307 207.499 72.3692 207.66 79.4473 207.176C79.4473 190.978 82.8692 183.655 90.4369 170.957C93.2026 166.4 96.0515 162.41 98.8171 157.853C101.588 153.218 103.619 149.228 105.979 143.858L107.119 150.53C108.177 144.832 108.26 142.15 110.213 137.02C111.921 132.301 120.713 116.676 125.109 119.358C126.244 120.009 127.468 123.103 127.953 124.978C128.77 127.905 128.525 129.291 128.77 132.301C137.802 132.384 144.963 134.009 146.265 142.15C160.51 144.02 154.567 147.03 153.593 149.556C154.65 149.634 154.567 149.473 155.463 149.962C156.031 158.832 150.093 162.171 144.802 165.504C138.046 169.738 133.895 171.936 133.734 180.478C132.921 180.317 127.63 175.353 123.968 175.192C125.109 175.921 128.77 179.504 129.906 180.645C141.546 192.931 150.255 206.77 156.114 222.884C156.682 224.348 158.395 230.452 158.963 231.348C160.265 228.983 159.937 223.207 159.775 220.113C164.01 220.52 169.38 221.905 174.098 222.556C197.052 225.728 222.932 224.916 244.171 215.639C249.953 213.197 260.124 207.66 263.869 203.348C261.02 204.166 257.437 205.952 254.182 207.009C234.567 213.442 212.432 214.009 192.005 210.999C184.109 209.858 180.692 208.723 174.505 207.66C174.833 206.358 175.567 205.139 175.973 203.837C176.463 202.619 176.703 201.15 177.031 199.608C178.171 200.744 178.171 201.561 180.369 201.968C179.552 197.572 176.218 182.676 178.9 178.363C181.02 181.619 181.588 184.223 182.645 188.619C183.541 183.327 181.749 176.249 180.041 171.363C179.473 169.738 178.578 168.03 178.171 166.561C179.552 167.541 180.041 169.087 181.098 169.9C180.937 164.608 178.249 159.728 176.218 156.228C166.692 140.197 163.114 135.473 164.088 113.014C161.973 113.666 153.265 122.291 152.614 123.431C153.348 120.337 158.963 114.395 160.916 112.77C164.578 109.676 167.671 107.639 172.145 105.197C182.239 99.4207 191.598 97.5509 192.005 87.1343C196.968 83.7957 197.458 75.004 195.666 70.6082C194.525 67.6811 193.552 67.8426 192.494 66.4624C195.911 64.8322 195.911 61.4936 192.494 59.7853C184.109 55.6343 168.484 65.8113 162.218 62.7176C162.953 61.1707 164.01 61.1707 166.124 60.6811C164.416 58.6447 161.484 56.0405 158.802 54.3322C153.427 50.9155 151.473 51.5665 149.114 50.4259C150.338 49.452 150.01 49.8582 151.473 49.2853C151.473 49.2853 151.963 49.2853 152.291 48.879L146.916 48.3113C142.442 48.0665 138.13 50.1811 136.661 50.1811Z" fill="white"/>
</g>
<path fill-rule="evenodd" clip-rule="evenodd" d="M20.364 228.66C24.5151 227.52 28.338 225.895 33.0619 224.671C48.0359 221.009 63.4994 220.035 78.6348 222.801C96.864 226.218 120.713 229.15 140.244 226.624C138.942 226.056 126.734 224.999 124.046 224.671C108.588 222.556 92.0619 218.244 78.3119 216.369C65.9421 214.744 56.6609 215.067 45.1869 217.593C38.6765 218.973 31.0255 221.822 25.4109 225.16C23.2963 226.462 21.9942 227.52 20.364 228.66Z" fill="white"/>
<mask id="mask1_3405_461" style="mask-type:luminance" maskUnits="userSpaceOnUse" x="18" y="0" width="249" height="205">
<path d="M18.791 0.113403H266.692V204.817H18.791V0.113403Z" fill="white"/>
</mask>
<g mask="url(#mask1_3405_461)">
<path fill-rule="evenodd" clip-rule="evenodd" d="M22.8066 112.848C20.3639 103.817 19.1452 94.2957 19.39 84.853C19.7129 67.2749 25.0827 49.9363 35.8275 35.7801C41.1973 28.6967 47.7077 22.6759 55.1973 17.9572C76.765 4.28008 101.343 5.25924 123.395 17.0613C125.187 18.0353 126.895 19.0145 128.604 20.0717C129.744 20.7228 130.885 21.452 132.025 22.1863C132.515 22.5145 134.301 23.5717 134.874 23.5717C135.604 23.4884 137.963 20.9676 138.536 20.478C149.765 9.41029 162.708 1.67591 178.822 0.863412C193.796 0.129037 208.036 4.36341 220.734 12.0926C231.963 18.9311 241.973 28.5353 249.463 39.3582C250.926 41.4728 252.39 43.6707 253.692 45.952C254.994 48.228 256.218 50.5092 257.437 52.8686C258.01 54.0092 258.494 55.0665 259.067 56.2072C264.598 68.4936 266.88 82.0874 266.551 95.5145C266.307 105.686 264.598 115.942 261.51 125.707C259.145 133.113 256.38 140.197 252.718 147.113C250.031 152.238 247.02 157.202 243.926 162.087C233.51 178.77 219.348 196.108 201.525 204.817C226.593 180.645 257.031 123.186 254.343 88.0249C253.531 76.9572 250.52 66.0509 245.718 56.1238C241.65 47.9051 236.281 39.9311 229.765 33.4155C220.895 24.7072 209.26 18.4415 197.13 15.5926C178.739 11.2801 159.937 14.8634 145.697 27.8009C143.744 29.5092 142.197 31.4624 140.567 33.4155C139.432 34.8842 137.963 36.6707 136.01 37.0822C134.874 37.2436 133.817 36.9155 132.755 36.3478C132.187 36.0197 131.619 35.5353 131.046 35.129C130.234 34.3947 129.421 33.7436 128.604 33.0092C126.244 31.2228 123.807 29.4311 121.281 27.9624C101.015 16.0822 80.4264 15.4311 59.6712 26.3374C29.1556 42.452 22.6452 77.853 28.1764 109.27C29.5619 117.244 33.3848 134.254 35.4994 142.228C29.8848 132.791 25.6556 123.509 22.8066 112.848Z" fill="white"/>
</g>
<path d="M16.0281 277.589C20.6479 277.589 24.7468 276.287 27.252 273.521C26.1427 270.854 25.1375 267.406 25.1375 267.406C25.1375 267.406 22.8614 271.344 17.2312 271.344C12.2208 271.344 7.79891 268.057 7.79891 261.422C7.79891 254.719 12.2208 251.432 17.2312 251.432C22.8614 251.432 25.1375 255.37 25.1375 255.37C25.1375 255.37 26.1427 251.922 27.252 249.255C24.7468 246.49 20.6479 245.219 16.0281 245.219C6.56454 245.219 0.481201 252.474 0.481201 261.386C0.481201 270.302 6.56454 277.589 16.0281 277.589Z" fill="white"/>
<path d="M37.4927 277.099C36.7479 276.448 36.3573 274.662 36.3573 273.031V264.057H44.8781V273.068C44.8781 274.693 44.4875 276.448 43.7375 277.099H53.3364C52.5864 276.448 52.1958 274.662 52.1958 273.031V249.776C52.1958 248.146 52.5864 246.36 53.3364 245.708H43.7375C44.4875 246.36 44.8781 248.115 44.8781 249.745V258.198H36.3573V249.776C36.3573 248.146 36.7479 246.36 37.4927 245.708H27.8989C28.6489 246.36 29.0396 248.115 29.0396 249.745V273.068C29.0396 274.693 28.6489 276.448 27.8989 277.099H37.4927Z" fill="white"/>
<path d="M54.6353 277.099H64.229C63.4842 276.448 63.0936 274.693 63.0936 273.068V249.745C63.0936 248.115 63.4842 246.36 64.229 245.708H54.6353C55.3853 246.36 55.7759 248.146 55.7759 249.776V273.031C55.7759 274.662 55.3853 276.448 54.6353 277.099Z" fill="white"/>
<path d="M66.6721 249.745V273.068C66.6721 274.693 66.2815 276.448 65.5315 277.099H79.745C87.7502 277.099 91.5211 272.677 91.5211 267.927C91.5211 262.427 87.7815 260.281 84.9482 260.313C87.8127 259.37 89.7346 256.735 89.7346 253.516C89.7346 248.604 85.3075 245.708 80.8544 245.708H65.5315C66.2815 246.36 66.6721 248.115 66.6721 249.745ZM79.5836 263.5C82.7711 263.5 84.2034 265.094 84.2034 267.245C84.2034 269.391 82.7711 270.985 79.5836 270.985H73.9898V263.5H79.5836ZM73.9898 251.823H79.193C80.9846 251.823 82.318 253.156 82.318 254.75C82.318 256.344 80.9846 257.677 79.193 257.677H73.9898V251.823Z" fill="white"/>
<path d="M92.8208 277.099H102.415C101.67 276.448 101.279 274.693 101.279 273.068V249.745C101.279 248.115 101.67 246.36 102.415 245.708H92.8208C93.5708 246.36 93.9614 248.146 93.9614 249.776V273.031C93.9614 274.662 93.5708 276.448 92.8208 277.099Z" fill="white"/>
<path d="M116.24 277.099H125.251C123.199 274.401 121.964 271.438 121.475 267.729H130.194V273.068C130.194 274.693 129.803 276.448 129.058 277.099H138.652C137.902 276.448 137.511 274.662 137.511 273.031V248.083C136.569 246.328 133.35 245.219 130.324 245.219C119.751 245.219 113.964 254.849 113.964 263.797C113.964 269.099 114.678 272.479 116.24 277.099ZM121.511 261.552C122.157 257.255 124.532 251.922 130.225 251.922L130.194 261.552H121.511Z" fill="white"/>
<path d="M139.626 277.099H150.329C159.24 277.099 164.475 270.302 164.475 261.422C164.475 252.505 159.24 245.708 150.329 245.708H139.626C140.376 246.36 140.766 248.146 140.766 249.776V273.031C140.766 274.662 140.376 276.448 139.626 277.099ZM148.084 270.917V251.891H151.011C154.329 251.891 157.157 255.5 157.157 261.422C157.157 267.307 154.329 270.917 151.011 270.917H148.084Z" fill="white"/>
<path d="M166.754 261.422C166.754 270.333 171.176 277.589 181.457 277.589C191.733 277.589 196.16 270.333 196.16 261.422C196.16 252.474 191.733 245.219 181.457 245.219C171.176 245.219 166.754 252.474 166.754 261.422ZM174.072 261.386C174.072 255.922 176.285 251.5 181.421 251.5C186.629 251.5 188.837 255.922 188.837 261.386C188.837 266.818 186.629 271.276 181.421 271.276C176.285 271.276 174.072 266.818 174.072 261.386Z" fill="white"/>
<path d="M197.945 277.099H207.539C206.794 276.448 206.403 274.693 206.403 273.068V260.865L209.851 268.771C210.242 269 210.893 269.193 211.507 269.193C218.143 269.193 222.7 263.63 222.7 257.224C222.7 250.521 217.851 245.708 209.559 245.708H197.945C198.695 246.36 199.085 248.146 199.085 249.776V273.031C199.085 274.662 198.695 276.448 197.945 277.099ZM210.111 251.891C213.69 251.891 215.382 254.49 215.382 257.224C215.382 260.281 213.95 262.979 210.794 262.979C208.481 262.979 207.346 261.745 206.403 259.63V251.891H210.111Z" fill="white"/>
<path d="M223.998 245.708V253.708C225.592 252.214 228.066 251.891 229.66 251.891H231.998V273.031C231.998 274.662 231.607 276.448 230.863 277.099H240.456C239.706 276.448 239.321 274.693 239.321 273.068V251.891H241.758C243.352 251.891 245.826 252.214 247.42 253.708V245.708H223.998Z" fill="white"/>
<path d="M251.484 277.099H260.494C258.442 274.401 257.208 271.438 256.718 267.729H265.437V273.068C265.437 274.693 265.046 276.448 264.301 277.099H273.895C273.145 276.448 272.754 274.662 272.754 273.031V248.083C271.812 246.328 268.593 245.219 265.567 245.219C254.994 245.219 249.208 254.849 249.208 263.797C249.208 269.099 249.921 272.479 251.484 277.099ZM256.754 261.552C257.4 257.255 259.775 251.922 265.468 251.922L265.437 261.552H256.754Z" fill="white"/>
<path d="M26.643 290.793L31.8722 303.772H28.7055L27.7263 301.168H22.7888L21.8305 303.772H18.6638L23.893 290.793H26.643ZM26.7263 298.585L25.2888 294.814H25.2472L23.8097 298.585H26.7263Z" fill="white"/>
<path d="M35.8584 290.793H39.6292C41.4313 290.793 42.973 291.413 44.2542 292.647C45.5303 293.887 46.1709 295.428 46.1709 297.272C46.1709 299.147 45.5303 300.704 44.2542 301.939C42.973 303.163 41.4313 303.772 39.6292 303.772H35.8584V290.793ZM38.8167 301.126H39.2751C40.3584 301.126 41.2386 300.767 41.9209 300.043C42.6136 299.309 42.9678 298.392 42.9834 297.293C42.9834 296.199 42.6344 295.283 41.9417 294.543C41.2594 293.809 40.3688 293.439 39.2751 293.439H38.8167V301.126Z" fill="white"/>
<path d="M50.3716 297.272C50.3716 295.397 51.007 293.814 52.2882 292.522C53.5799 291.22 55.1216 290.564 56.9132 290.564C58.731 290.564 60.2726 291.21 61.5382 292.501C62.8143 293.793 63.4549 295.387 63.4549 297.272C63.4549 299.178 62.8299 300.772 61.5799 302.064C60.3299 303.355 58.7726 304.001 56.9132 304.001C55.0226 304.001 53.4601 303.366 52.2257 302.085C50.9862 300.793 50.3716 299.189 50.3716 297.272ZM53.5799 297.272C53.5799 297.954 53.6841 298.579 53.8924 299.147C54.1007 299.704 54.4601 300.178 54.9757 300.564C55.5018 300.954 56.1476 301.147 56.9132 301.147C58.0226 301.147 58.856 300.772 59.4132 300.022C59.981 299.262 60.2674 298.345 60.2674 297.272C60.2674 296.22 59.9757 295.309 59.3924 294.543C58.8195 293.783 57.9966 293.397 56.9132 293.397C55.8403 293.397 55.0174 293.783 54.4341 294.543C53.8612 295.309 53.5799 296.22 53.5799 297.272Z" fill="white"/>
<path d="M68.2368 290.793H72.9868C74.3045 290.793 75.367 291.137 76.1743 291.814C76.992 292.496 77.4035 293.491 77.4035 294.793C77.4035 296.1 76.9868 297.121 76.1535 297.855C75.3306 298.595 74.2785 298.96 72.9868 298.96H71.1951V303.772H68.2368V290.793ZM71.1951 296.605H72.0285C72.6951 296.605 73.2368 296.475 73.6535 296.21C74.0806 295.934 74.2993 295.491 74.2993 294.876C74.2993 294.267 74.0806 293.829 73.6535 293.564C73.2368 293.288 72.6951 293.147 72.0285 293.147H71.1951V296.605Z" fill="white"/>
<path d="M81.3887 293.397V290.793H90.5137V293.397H87.4303V303.772H84.472V293.397H81.3887Z" fill="white"/>
<path d="M101.669 290.793L106.898 303.772H103.732L102.752 301.168H97.8149L96.8566 303.772H93.6899L98.9191 290.793H101.669ZM101.752 298.585L100.315 294.814H100.273L98.8358 298.585H101.752Z" fill="white"/>
<path d="M125.274 290.793L130.503 303.772H127.336L126.357 301.168H121.42L120.461 303.772H117.295L122.524 290.793H125.274ZM125.357 298.585L123.92 294.814H123.878L122.441 298.585H125.357Z" fill="white"/>
<path d="M141.462 293.397V290.793H150.587V293.397H147.504V303.772H144.545V293.397H141.462Z" fill="white"/>
<path d="M165.117 290.793V299.168C165.117 300.767 164.685 301.975 163.826 302.793C162.961 303.6 161.706 304.001 160.055 304.001C158.398 304.001 157.143 303.6 156.284 302.793C155.419 301.975 154.992 300.767 154.992 299.168V290.793H157.951V298.293C157.951 299.35 158.107 300.085 158.43 300.501C158.763 300.908 159.294 301.105 160.034 301.105C160.784 301.105 161.326 300.908 161.659 300.501C161.992 300.085 162.159 299.35 162.159 298.293V290.793H165.117Z" fill="white"/>
<path d="M185.031 301.105C185.473 301.105 185.906 301.038 186.322 300.897C186.749 300.762 187.072 300.626 187.281 300.501L187.572 300.293L188.822 302.814C188.781 302.845 188.723 302.887 188.656 302.939C188.583 302.996 188.411 303.095 188.135 303.23C187.869 303.371 187.583 303.496 187.281 303.605C186.989 303.704 186.593 303.793 186.093 303.876C185.603 303.96 185.098 304.001 184.572 304.001C183.364 304.001 182.218 303.71 181.135 303.126C180.051 302.533 179.176 301.72 178.51 300.689C177.853 299.647 177.531 298.522 177.531 297.314C177.531 296.397 177.723 295.522 178.114 294.689C178.499 293.845 179.015 293.121 179.656 292.522C180.307 291.928 181.062 291.454 181.926 291.105C182.786 290.746 183.666 290.564 184.572 290.564C185.406 290.564 186.176 290.663 186.885 290.855C187.593 291.053 188.093 291.251 188.385 291.46L188.822 291.751L187.572 294.272C187.499 294.204 187.39 294.126 187.239 294.043C187.098 293.96 186.807 293.845 186.364 293.689C185.916 293.538 185.473 293.46 185.031 293.46C184.307 293.46 183.661 293.579 183.093 293.814C182.536 294.053 182.093 294.355 181.76 294.73C181.426 295.105 181.166 295.517 180.989 295.96C180.822 296.392 180.739 296.829 180.739 297.272C180.739 298.262 181.103 299.147 181.843 299.939C182.593 300.72 183.656 301.105 185.031 301.105Z" fill="white"/>
<path d="M192.863 297.272C192.863 295.397 193.498 293.814 194.779 292.522C196.071 291.22 197.613 290.564 199.404 290.564C201.222 290.564 202.764 291.21 204.029 292.501C205.306 293.793 205.946 295.387 205.946 297.272C205.946 299.178 205.321 300.772 204.071 302.064C202.821 303.355 201.264 304.001 199.404 304.001C197.514 304.001 195.951 303.366 194.717 302.085C193.477 300.793 192.863 299.189 192.863 297.272ZM196.071 297.272C196.071 297.954 196.175 298.579 196.384 299.147C196.592 299.704 196.951 300.178 197.467 300.564C197.993 300.954 198.639 301.147 199.404 301.147C200.514 301.147 201.347 300.772 201.904 300.022C202.472 299.262 202.759 298.345 202.759 297.272C202.759 296.22 202.467 295.309 201.884 294.543C201.311 293.783 200.488 293.397 199.404 293.397C198.332 293.397 197.509 293.783 196.925 294.543C196.352 295.309 196.071 296.22 196.071 297.272Z" fill="white"/>
<path d="M221.457 303.772L220.853 296.085H220.77L218.103 303.689H216.353L213.686 296.085H213.603L212.999 303.772H210.041L211.207 290.793H214.353L217.228 298.293L220.103 290.793H223.249L224.416 303.772H221.457Z" fill="white"/>
<path d="M229.095 290.793H233.845C235.163 290.793 236.225 291.137 237.032 291.814C237.85 292.496 238.262 293.491 238.262 294.793C238.262 296.1 237.845 297.121 237.012 297.855C236.189 298.595 235.137 298.96 233.845 298.96H232.053V303.772H229.095V290.793ZM232.053 296.605H232.887C233.553 296.605 234.095 296.475 234.512 296.21C234.939 295.934 235.157 295.491 235.157 294.876C235.157 294.267 234.939 293.829 234.512 293.564C234.095 293.288 233.553 293.147 232.887 293.147H232.053V296.605Z" fill="white"/>
<path d="M249.663 290.793L254.893 303.772H251.726L250.747 301.168H245.809L244.851 303.772H241.684L246.913 290.793H249.663ZM249.747 298.585L248.309 294.814H248.268L246.83 298.585H249.747Z" fill="white"/>
</svg>
